# MagicaVoxel @ Ephtracy

# group
o 

# material
mtllib AK_main.mtl
usemtl palette

# normals
vn -1 0 0
vn 1 0 0
vn 0 0 1
vn 0 0 -1
vn 0 -1 0
vn 0 1 0

# texcoords
vt 0.537109 0.5
vt 0.974609 0.5
vt 0.978516 0.5
vt 0.982422 0.5
vt 0.986328 0.5
vt 0.990234 0.5

# verts
v -2.5 0.7 0.6
v -2.5 0.7 0.4
v -2.5 1.3 0.6
v -2.5 1.3 0.4
v -2.4 0.8 0.7
v -2.4 0.8 0.6
v -2.4 0.9 0.4
v -2.4 0.9 0.3
v -2.4 1.3 0.6
v -2.4 1.3 0.4
v -2.4 1.4 0.7
v -2.4 1.4 0.3
v -2.3 1.4 0.6
v -2.3 1.4 0.4
v -2.3 1.5 0.6
v -2.3 1.5 0.4
v -1.1 1.4 0.6
v -1.1 1.4 0.4
v -1.1 1.5 0.6
v -1.1 1.5 0.4
v -1 1.5 0.6
v -1 1.5 0.4
v -1 1.6 0.6
v -1 1.6 0.4
v -0.9 0.2 0.6
v -0.9 0.2 0.4
v -0.9 0.6 0.6
v -0.9 0.6 0.4
v -0.8 0.1 0.7
v -0.8 0.1 0.3
v -0.8 0.2 0.6
v -0.8 0.2 0.4
v -0.8 0.6 0.7
v -0.8 0.6 0.6
v -0.8 0.6 0.4
v -0.8 0.6 0.3
v -0.8 0.8 0.6
v -0.8 0.8 0.4
v -0.7 0 0.6
v -0.7 0 0.4
v -0.7 0.1 0.6
v -0.7 0.1 0.4
v -0.7 0.6 0.7
v -0.7 0.6 0.6
v -0.7 0.6 0.4
v -0.7 0.6 0.3
v -0.7 0.8 0.7
v -0.7 0.8 0.6
v -0.7 0.8 0.4
v -0.7 0.8 0.3
v -0.7 1.1 0.6
v -0.7 1.1 0.4
v -0.6 0.8 0.7
v -0.6 0.8 0.6
v -0.6 0.8 0.4
v -0.6 0.8 0.3
v -0.6 1.1 0.7
v -0.6 1.1 0.6
v -0.6 1.1 0.4
v -0.6 1.1 0.3
v -0.2 1.4 0.7
v -0.2 1.4 0.6
v -0.2 1.4 0.4
v -0.2 1.4 0.3
v -0.2 1.5 0.7
v -0.2 1.5 0.6
v -0.2 1.5 0.4
v -0.2 1.5 0.3
v 0.1 0.8 0.6
v 0.1 0.8 0.4
v 0.1 1.1 0.6
v 0.1 1.1 0.4
v 0.4 1.5 0.7
v 0.4 1.5 0.6
v 0.4 1.5 0.4
v 0.4 1.5 0.3
v 0.4 1.6 0.7
v 0.4 1.6 0.6
v 0.4 1.6 0.4
v 0.4 1.6 0.3
v 1.1 1.6 0.6
v 1.1 1.6 0.4
v 1.1 1.7 0.6
v 1.1 1.7 0.4
v 1.6 1.4 0.7
v 1.6 1.4 0.6
v 1.6 1.4 0.4
v 1.6 1.4 0.3
v 1.6 1.5 0.7
v 1.6 1.5 0.6
v 1.6 1.5 0.4
v 1.6 1.5 0.3
v 1.8 1.4 0.7
v 1.8 1.4 0.6
v 1.8 1.4 0.4
v 1.8 1.4 0.3
v 1.8 1.5 0.7
v 1.8 1.5 0.6
v 1.8 1.5 0.4
v 1.8 1.5 0.3
v 2 1.4 0.7
v 2 1.4 0.6
v 2 1.4 0.4
v 2 1.4 0.3
v 2 1.5 0.7
v 2 1.5 0.6
v 2 1.5 0.4
v 2 1.5 0.3
v 2.1 1.3 0.6
v 2.1 1.3 0.4
v 2.1 1.4 0.6
v 2.1 1.4 0.4
v 2.6 1.4 0.6
v 2.6 1.4 0.4
v 2.6 1.5 0.6
v 2.6 1.5 0.4
v 3 1.4 0.6
v 3 1.4 0.4
v 3 1.5 0.6
v 3 1.5 0.4
v 3.1 1.5 0.6
v 3.1 1.5 0.4
v 3.1 1.6 0.6
v 3.1 1.6 0.4
v 3.2 1.4 0.6
v 3.2 1.4 0.4
v 3.2 1.5 0.6
v 3.2 1.5 0.4
v -2 0.7 0.6
v -2 0.7 0.4
v -2 0.8 0.7
v -2 0.8 0.6
v -2 0.8 0.4
v -2 0.9 0.7
v -2 0.9 0.6
v -1.8 0.8 0.6
v -1.8 0.8 0.4
v -1.8 0.9 0.6
v -1.8 0.9 0.4
v -1.6 0.9 0.7
v -1.6 0.9 0.6
v -1.6 0.9 0.4
v -1.6 0.9 0.3
v -1.6 1 0.7
v -1.6 1 0.6
v -1.6 1 0.4
v -1.6 1 0.3
v -1.5 0.9 0.6
v -1.5 0.9 0.4
v -1.5 1 0.6
v -1.5 1 0.4
v -1.5 1.4 0.6
v -1.5 1.4 0.4
v -1.5 1.5 0.6
v -1.5 1.5 0.4
v -1.4 1 0.7
v -1.4 1 0.6
v -1.4 1 0.4
v -1.4 1 0.3
v -1.4 1.1 0.7
v -1.4 1.1 0.6
v -1.4 1.1 0.4
v -1.4 1.1 0.3
v -1.2 1 0.6
v -1.2 1 0.4
v -1.2 1.1 0.6
v -1.2 1.1 0.4
v -0.5 0 0.6
v -0.5 0 0.4
v -0.5 0.1 0.7
v -0.5 0.1 0.6
v -0.5 0.1 0.4
v -0.5 0.1 0.3
v -0.5 0.5 0.7
v -0.5 0.5 0.6
v -0.5 0.5 0.4
v -0.5 0.5 0.3
v -0.4 0.1 0.6
v -0.4 0.1 0.4
v -0.4 0.5 0.6
v -0.4 0.5 0.4
v -0.3 0.5 0.7
v -0.3 0.5 0.3
v -0.3 0.6 0.6
v -0.3 0.6 0.4
v -0.3 1.1 0.7
v -0.3 1.1 0.6
v -0.3 1.1 0.4
v -0.3 1.1 0.3
v -0.2 0.6 0.6
v -0.2 0.6 0.4
v -0.2 0.7 0.6
v -0.2 0.7 0.4
v -0.2 0.8 0.6
v -0.2 0.8 0.4
v -0.2 1.1 0.6
v -0.2 1.1 0.4
v 0.1 0.7 0.6
v 0.1 0.7 0.4
v 0.1 0.8 0.6
v 0.1 0.8 0.4
v 0.2 0.8 0.6
v 0.2 0.8 0.4
v 0.2 1.1 0.6
v 0.2 1.1 0.4
v 1.4 1.5 0.7
v 1.4 1.5 0.6
v 1.4 1.5 0.4
v 1.4 1.5 0.3
v 1.4 1.6 0.7
v 1.4 1.6 0.6
v 1.4 1.6 0.4
v 1.4 1.6 0.3
v 1.4 1.7 0.6
v 1.4 1.7 0.4
v 1.5 1.4 0.7
v 1.5 1.4 0.6
v 1.5 1.4 0.4
v 1.5 1.4 0.3
v 1.5 1.5 0.7
v 1.5 1.5 0.6
v 1.5 1.5 0.4
v 1.5 1.5 0.3
v 1.7 1.4 0.7
v 1.7 1.4 0.6
v 1.7 1.4 0.4
v 1.7 1.4 0.3
v 1.7 1.5 0.7
v 1.7 1.5 0.6
v 1.7 1.5 0.4
v 1.7 1.5 0.3
v 1.9 1.1 0.7
v 1.9 1.1 0.6
v 1.9 1.1 0.4
v 1.9 1.1 0.3
v 1.9 1.2 0.7
v 1.9 1.2 0.6
v 1.9 1.2 0.4
v 1.9 1.2 0.3
v 1.9 1.4 0.7
v 1.9 1.4 0.6
v 1.9 1.4 0.4
v 1.9 1.4 0.3
v 1.9 1.5 0.7
v 1.9 1.5 0.6
v 1.9 1.5 0.4
v 1.9 1.5 0.3
v 2 1.3 0.6
v 2 1.3 0.4
v 2 1.4 0.6
v 2 1.4 0.4
v 2.1 1.4 0.7
v 2.1 1.4 0.6
v 2.1 1.4 0.4
v 2.1 1.4 0.3
v 2.1 1.5 0.7
v 2.1 1.5 0.6
v 2.1 1.5 0.4
v 2.1 1.5 0.3
v 2.3 1.1 0.6
v 2.3 1.1 0.4
v 2.3 1.2 0.7
v 2.3 1.2 0.6
v 2.3 1.2 0.4
v 2.3 1.2 0.3
v 2.3 1.4 0.7
v 2.3 1.4 0.6
v 2.3 1.4 0.4
v 2.3 1.4 0.3
v 2.3 1.5 0.6
v 2.3 1.5 0.4
v 2.6 1.5 0.6
v 2.6 1.5 0.4
v 2.6 1.6 0.6
v 2.6 1.6 0.4
v 2.7 1.4 0.6
v 2.7 1.4 0.4
v 2.7 1.5 0.6
v 2.7 1.5 0.4
v 3.1 1.4 0.6
v 3.1 1.4 0.4
v 3.1 1.5 0.6
v 3.1 1.5 0.4
v 3.3 1.4 0.6
v 3.3 1.4 0.4
v 3.3 1.6 0.6
v 3.3 1.6 0.4
v 3.4 1.2 0.6
v 3.4 1.2 0.4
v 3.4 1.4 0.6
v 3.4 1.4 0.4
v -2.4 0.8 0.7
v -2.4 1.4 0.7
v -2 0.8 0.7
v -2 0.9 0.7
v -1.6 0.9 0.7
v -1.6 1 0.7
v -1.4 1 0.7
v -1.4 1.1 0.7
v -1 1.1 0.7
v -1 1.4 0.7
v -0.8 0.1 0.7
v -0.8 0.6 0.7
v -0.7 0.6 0.7
v -0.7 0.8 0.7
v -0.6 0.8 0.7
v -0.6 1.1 0.7
v -0.5 0.1 0.7
v -0.5 0.5 0.7
v -0.3 0.5 0.7
v -0.3 1.1 0.7
v -0.2 1.4 0.7
v -0.2 1.5 0.7
v 0.4 1.4 0.7
v 0.4 1.5 0.7
v 0.4 1.6 0.7
v 1.1 1.4 0.7
v 1.1 1.5 0.7
v 1.4 1.1 0.7
v 1.4 1.5 0.7
v 1.4 1.6 0.7
v 1.5 1.4 0.7
v 1.5 1.5 0.7
v 1.6 1.4 0.7
v 1.6 1.5 0.7
v 1.7 1.4 0.7
v 1.7 1.5 0.7
v 1.8 1.4 0.7
v 1.8 1.5 0.7
v 1.9 1.1 0.7
v 1.9 1.2 0.7
v 1.9 1.4 0.7
v 1.9 1.5 0.7
v 2 1.4 0.7
v 2 1.5 0.7
v 2.1 1.4 0.7
v 2.1 1.5 0.7
v 2.3 1.2 0.7
v 2.3 1.4 0.7
v -2.5 0.7 0.6
v -2.5 1.3 0.6
v -2.4 0.8 0.6
v -2.4 1.3 0.6
v -2.3 1.4 0.6
v -2.3 1.5 0.6
v -2 0.7 0.6
v -2 0.8 0.6
v -2 0.9 0.6
v -1.8 0.8 0.6
v -1.8 0.9 0.6
v -1.6 0.9 0.6
v -1.6 1 0.6
v -1.5 0.9 0.6
v -1.5 1 0.6
v -1.5 1.4 0.6
v -1.5 1.5 0.6
v -1.4 1 0.6
v -1.4 1.1 0.6
v -1.2 1 0.6
v -1.2 1.1 0.6
v -1.1 1.4 0.6
v -1.1 1.5 0.6
v -1 1.4 0.6
v -1 1.5 0.6
v -1 1.6 0.6
v -0.9 0.2 0.6
v -0.9 0.6 0.6
v -0.8 0.2 0.6
v -0.8 0.6 0.6
v -0.8 0.8 0.6
v -0.7 0 0.6
v -0.7 0.1 0.6
v -0.7 0.6 0.6
v -0.7 0.8 0.6
v -0.7 1.1 0.6
v -0.6 0.8 0.6
v -0.6 1.1 0.6
v -0.5 0 0.6
v -0.5 0.1 0.6
v -0.5 0.5 0.6
v -0.4 0.1 0.6
v -0.4 0.5 0.6
v -0.3 0.6 0.6
v -0.3 1.1 0.6
v -0.2 0.6 0.6
v -0.2 0.7 0.6
v -0.2 0.8 0.6
v -0.2 1.1 0.6
v -0.2 1.4 0.6
v -0.2 1.5 0.6
v 0.1 0.7 0.6
v 0.1 0.8 0.6
v 0.1 1.1 0.6
v 0.2 0.8 0.6
v 0.2 1.1 0.6
v 0.4 1.5 0.6
v 0.4 1.6 0.6
v 1.1 1.6 0.6
v 1.1 1.7 0.6
v 1.4 1.5 0.6
v 1.4 1.6 0.6
v 1.4 1.7 0.6
v 1.5 1.5 0.6
v 1.6 1.5 0.6
v 1.7 1.5 0.6
v 1.8 1.5 0.6
v 1.9 1.1 0.6
v 1.9 1.2 0.6
v 1.9 1.5 0.6
v 2 1.5 0.6
v 2.1 1.4 0.6
v 2.1 1.5 0.6
v 2.1 1.6 0.6
v 2.3 1.1 0.6
v 2.3 1.2 0.6
v 2.3 1.4 0.6
v 2.3 1.5 0.6
v 2.6 1.4 0.6
v 2.6 1.5 0.6
v 2.6 1.6 0.6
v 2.7 1.4 0.6
v 2.7 1.5 0.6
v 3 1.4 0.6
v 3 1.5 0.6
v 3.1 1.4 0.6
v 3.1 1.5 0.6
v 3.1 1.6 0.6
v 3.2 1.4 0.6
v 3.2 1.5 0.6
v 3.3 1.4 0.6
v 3.3 1.6 0.6
v 3.4 1.2 0.6
v 3.4 1.4 0.6
v 2 1.3 0.4
v 2 1.4 0.4
v 2.1 1.3 0.4
v 2.1 1.4 0.4
v 2 1.3 0.6
v 2 1.4 0.6
v 2.1 1.3 0.6
v 2.1 1.4 0.6
v -2.5 0.7 0.4
v -2.5 1.3 0.4
v -2.4 0.9 0.4
v -2.4 1.3 0.4
v -2.3 1.4 0.4
v -2.3 1.5 0.4
v -2 0.7 0.4
v -2 0.8 0.4
v -1.8 0.8 0.4
v -1.8 0.9 0.4
v -1.6 0.9 0.4
v -1.6 1 0.4
v -1.5 0.9 0.4
v -1.5 1 0.4
v -1.5 1.4 0.4
v -1.5 1.5 0.4
v -1.4 1 0.4
v -1.4 1.1 0.4
v -1.2 1 0.4
v -1.2 1.1 0.4
v -1.1 1.4 0.4
v -1.1 1.5 0.4
v -1 1.4 0.4
v -1 1.5 0.4
v -1 1.6 0.4
v -0.9 0.2 0.4
v -0.9 0.6 0.4
v -0.8 0.2 0.4
v -0.8 0.6 0.4
v -0.8 0.8 0.4
v -0.7 0 0.4
v -0.7 0.1 0.4
v -0.7 0.6 0.4
v -0.7 0.8 0.4
v -0.7 1.1 0.4
v -0.6 0.8 0.4
v -0.6 1.1 0.4
v -0.5 0 0.4
v -0.5 0.1 0.4
v -0.5 0.5 0.4
v -0.4 0.1 0.4
v -0.4 0.5 0.4
v -0.3 0.6 0.4
v -0.3 1.1 0.4
v -0.2 0.6 0.4
v -0.2 0.7 0.4
v -0.2 0.8 0.4
v -0.2 1.1 0.4
v -0.2 1.4 0.4
v -0.2 1.5 0.4
v 0.1 0.7 0.4
v 0.1 0.8 0.4
v 0.1 1.1 0.4
v 0.2 0.8 0.4
v 0.2 1.1 0.4
v 0.4 1.5 0.4
v 0.4 1.6 0.4
v 1.1 1.6 0.4
v 1.1 1.7 0.4
v 1.4 1.5 0.4
v 1.4 1.6 0.4
v 1.4 1.7 0.4
v 1.5 1.5 0.4
v 1.6 1.5 0.4
v 1.7 1.5 0.4
v 1.8 1.5 0.4
v 1.9 1.1 0.4
v 1.9 1.2 0.4
v 1.9 1.5 0.4
v 2 1.5 0.4
v 2.1 1.4 0.4
v 2.1 1.5 0.4
v 2.1 1.6 0.4
v 2.3 1.1 0.4
v 2.3 1.2 0.4
v 2.3 1.4 0.4
v 2.3 1.5 0.4
v 2.6 1.4 0.4
v 2.6 1.5 0.4
v 2.6 1.6 0.4
v 2.7 1.4 0.4
v 2.7 1.5 0.4
v 3 1.4 0.4
v 3 1.5 0.4
v 3.1 1.4 0.4
v 3.1 1.5 0.4
v 3.1 1.6 0.4
v 3.2 1.4 0.4
v 3.2 1.5 0.4
v 3.3 1.4 0.4
v 3.3 1.6 0.4
v 3.4 1.2 0.4
v 3.4 1.4 0.4
v -2.4 0.9 0.3
v -2.4 1.4 0.3
v -1.6 0.9 0.3
v -1.6 1 0.3
v -1.4 1 0.3
v -1.4 1.1 0.3
v -1 1.1 0.3
v -1 1.4 0.3
v -0.8 0.1 0.3
v -0.8 0.6 0.3
v -0.7 0.6 0.3
v -0.7 0.8 0.3
v -0.6 0.8 0.3
v -0.6 1.1 0.3
v -0.5 0.1 0.3
v -0.5 0.5 0.3
v -0.3 0.5 0.3
v -0.3 1.1 0.3
v -0.2 1.4 0.3
v -0.2 1.5 0.3
v 0.4 1.5 0.3
v 0.4 1.6 0.3
v 1.4 1.1 0.3
v 1.4 1.5 0.3
v 1.4 1.6 0.3
v 1.5 1.4 0.3
v 1.5 1.5 0.3
v 1.6 1.4 0.3
v 1.6 1.5 0.3
v 1.7 1.4 0.3
v 1.7 1.5 0.3
v 1.8 1.4 0.3
v 1.8 1.5 0.3
v 1.9 1.1 0.3
v 1.9 1.2 0.3
v 1.9 1.4 0.3
v 1.9 1.5 0.3
v 2 1.4 0.3
v 2 1.5 0.3
v 2.1 1.4 0.3
v 2.1 1.5 0.3
v 2.3 1.2 0.3
v 2.3 1.4 0.3
v -0.7 0 0.6
v -0.5 0 0.6
v -0.7 0 0.4
v -0.5 0 0.4
v -0.8 0.1 0.7
v -0.5 0.1 0.7
v -0.7 0.1 0.6
v -0.5 0.1 0.6
v -0.4 0.1 0.6
v -0.7 0.1 0.4
v -0.5 0.1 0.4
v -0.4 0.1 0.4
v -0.8 0.1 0.3
v -0.5 0.1 0.3
v -0.9 0.2 0.6
v -0.8 0.2 0.6
v -0.9 0.2 0.4
v -0.8 0.2 0.4
v -0.5 0.5 0.7
v -0.3 0.5 0.7
v -0.5 0.5 0.6
v -0.4 0.5 0.6
v -0.5 0.5 0.4
v -0.4 0.5 0.4
v -0.5 0.5 0.3
v -0.3 0.5 0.3
v -0.3 0.6 0.6
v -0.2 0.6 0.6
v -0.3 0.6 0.4
v -0.2 0.6 0.4
v -2.5 0.7 0.6
v -2 0.7 0.6
v -0.2 0.7 0.6
v 0.1 0.7 0.6
v -2.5 0.7 0.4
v -2 0.7 0.4
v -0.2 0.7 0.4
v 0.1 0.7 0.4
v -2.4 0.8 0.7
v -2 0.8 0.7
v -2.4 0.8 0.6
v -2 0.8 0.6
v -1.8 0.8 0.6
v 0.1 0.8 0.6
v 0.2 0.8 0.6
v -2 0.8 0.4
v -1.8 0.8 0.4
v 0.1 0.8 0.4
v 0.2 0.8 0.4
v -2 0.9 0.7
v -1.6 0.9 0.7
v -2 0.9 0.6
v -1.8 0.9 0.6
v -1.6 0.9 0.6
v -1.5 0.9 0.6
v -2.4 0.9 0.4
v -1.8 0.9 0.4
v -1.6 0.9 0.4
v -1.5 0.9 0.4
v -2.4 0.9 0.3
v -1.6 0.9 0.3
v -1.6 1 0.7
v -1.4 1 0.7
v -1.6 1 0.6
v -1.5 1 0.6
v -1.4 1 0.6
v -1.2 1 0.6
v -1.6 1 0.4
v -1.5 1 0.4
v -1.4 1 0.4
v -1.2 1 0.4
v -1.6 1 0.3
v -1.4 1 0.3
v -1.4 1.1 0.7
v -1 1.1 0.7
v -0.6 1.1 0.7
v -0.3 1.1 0.7
v 1.4 1.1 0.7
v 1.9 1.1 0.7
v -1.4 1.1 0.6
v -1.2 1.1 0.6
v -0.7 1.1 0.6
v -0.6 1.1 0.6
v -0.3 1.1 0.6
v -0.2 1.1 0.6
v 0.1 1.1 0.6
v 0.2 1.1 0.6
v 1.9 1.1 0.6
v 2.3 1.1 0.6
v -1.4 1.1 0.4
v -1.2 1.1 0.4
v -0.7 1.1 0.4
v -0.6 1.1 0.4
v -0.3 1.1 0.4
v -0.2 1.1 0.4
v 0.1 1.1 0.4
v 0.2 1.1 0.4
v 1.9 1.1 0.4
v 2.3 1.1 0.4
v -1.4 1.1 0.3
v -1 1.1 0.3
v -0.6 1.1 0.3
v -0.3 1.1 0.3
v 1.4 1.1 0.3
v 1.9 1.1 0.3
v 1.9 1.2 0.7
v 2.3 1.2 0.7
v 1.9 1.2 0.6
v 2.3 1.2 0.6
v 3.4 1.2 0.6
v 1.9 1.2 0.4
v 2.3 1.2 0.4
v 3.4 1.2 0.4
v 1.9 1.2 0.3
v 2.3 1.2 0.3
v 2 1.4 0.6
v 2.1 1.4 0.6
v 2 1.4 0.4
v 2.1 1.4 0.4
v 1.5 1.5 0.6
v 1.6 1.5 0.6
v 1.7 1.5 0.6
v 1.8 1.5 0.6
v 1.9 1.5 0.6
v 2 1.5 0.6
v 2.3 1.5 0.6
v 2.6 1.5 0.6
v 3.1 1.5 0.6
v 3.2 1.5 0.6
v 1.5 1.5 0.4
v 1.6 1.5 0.4
v 1.7 1.5 0.4
v 1.8 1.5 0.4
v 1.9 1.5 0.4
v 2 1.5 0.4
v 2.3 1.5 0.4
v 2.6 1.5 0.4
v 3.1 1.5 0.4
v 3.2 1.5 0.4
v -0.8 0.6 0.7
v -0.7 0.6 0.7
v -0.9 0.6 0.6
v -0.8 0.6 0.6
v -0.7 0.6 0.6
v -0.9 0.6 0.4
v -0.8 0.6 0.4
v -0.7 0.6 0.4
v -0.8 0.6 0.3
v -0.7 0.6 0.3
v -0.7 0.8 0.7
v -0.6 0.8 0.7
v -0.8 0.8 0.6
v -0.7 0.8 0.6
v -0.6 0.8 0.6
v -0.2 0.8 0.6
v 0.1 0.8 0.6
v -0.8 0.8 0.4
v -0.7 0.8 0.4
v -0.6 0.8 0.4
v -0.2 0.8 0.4
v 0.1 0.8 0.4
v -0.7 0.8 0.3
v -0.6 0.8 0.3
v -2.5 1.3 0.6
v -2.4 1.3 0.6
v 2 1.3 0.6
v 2.1 1.3 0.6
v -2.5 1.3 0.4
v -2.4 1.3 0.4
v 2 1.3 0.4
v 2.1 1.3 0.4
v -2.4 1.4 0.7
v -1 1.4 0.7
v -0.2 1.4 0.7
v 1.5 1.4 0.7
v 1.6 1.4 0.7
v 1.7 1.4 0.7
v 1.8 1.4 0.7
v 1.9 1.4 0.7
v 2 1.4 0.7
v 2.1 1.4 0.7
v 2.3 1.4 0.7
v -2.3 1.4 0.6
v -1.5 1.4 0.6
v -1.1 1.4 0.6
v -1 1.4 0.6
v -0.2 1.4 0.6
v 1.5 1.4 0.6
v 1.6 1.4 0.6
v 1.7 1.4 0.6
v 1.8 1.4 0.6
v 1.9 1.4 0.6
v 2 1.4 0.6
v 2.1 1.4 0.6
v 2.3 1.4 0.6
v 2.6 1.4 0.6
v 2.7 1.4 0.6
v 3 1.4 0.6
v 3.1 1.4 0.6
v 3.2 1.4 0.6
v 3.3 1.4 0.6
v 3.4 1.4 0.6
v -2.3 1.4 0.4
v -1.5 1.4 0.4
v -1.1 1.4 0.4
v -1 1.4 0.4
v -0.2 1.4 0.4
v 1.5 1.4 0.4
v 1.6 1.4 0.4
v 1.7 1.4 0.4
v 1.8 1.4 0.4
v 1.9 1.4 0.4
v 2 1.4 0.4
v 2.1 1.4 0.4
v 2.3 1.4 0.4
v 2.6 1.4 0.4
v 2.7 1.4 0.4
v 3 1.4 0.4
v 3.1 1.4 0.4
v 3.2 1.4 0.4
v 3.3 1.4 0.4
v 3.4 1.4 0.4
v -2.4 1.4 0.3
v -1 1.4 0.3
v -0.2 1.4 0.3
v 1.5 1.4 0.3
v 1.6 1.4 0.3
v 1.7 1.4 0.3
v 1.8 1.4 0.3
v 1.9 1.4 0.3
v 2 1.4 0.3
v 2.1 1.4 0.3
v 2.3 1.4 0.3
v -0.2 1.5 0.7
v 0.4 1.5 0.7
v 1.4 1.5 0.7
v 1.5 1.5 0.7
v 1.6 1.5 0.7
v 1.7 1.5 0.7
v 1.8 1.5 0.7
v 1.9 1.5 0.7
v 2 1.5 0.7
v 2.1 1.5 0.7
v -2.3 1.5 0.6
v -1.5 1.5 0.6
v -1.1 1.5 0.6
v -1 1.5 0.6
v -0.2 1.5 0.6
v 0.4 1.5 0.6
v 1.4 1.5 0.6
v 1.5 1.5 0.6
v 1.6 1.5 0.6
v 1.7 1.5 0.6
v 1.8 1.5 0.6
v 1.9 1.5 0.6
v 2 1.5 0.6
v 2.1 1.5 0.6
v 2.6 1.5 0.6
v 2.7 1.5 0.6
v 3 1.5 0.6
v 3.1 1.5 0.6
v -2.3 1.5 0.4
v -1.5 1.5 0.4
v -1.1 1.5 0.4
v -1 1.5 0.4
v -0.2 1.5 0.4
v 0.4 1.5 0.4
v 1.4 1.5 0.4
v 1.5 1.5 0.4
v 1.6 1.5 0.4
v 1.7 1.5 0.4
v 1.8 1.5 0.4
v 1.9 1.5 0.4
v 2 1.5 0.4
v 2.1 1.5 0.4
v 2.6 1.5 0.4
v 2.7 1.5 0.4
v 3 1.5 0.4
v 3.1 1.5 0.4
v -0.2 1.5 0.3
v 0.4 1.5 0.3
v 1.4 1.5 0.3
v 1.5 1.5 0.3
v 1.6 1.5 0.3
v 1.7 1.5 0.3
v 1.8 1.5 0.3
v 1.9 1.5 0.3
v 2 1.5 0.3
v 2.1 1.5 0.3
v 0.4 1.6 0.7
v 1.4 1.6 0.7
v -1 1.6 0.6
v 0.4 1.6 0.6
v 1.1 1.6 0.6
v 1.4 1.6 0.6
v 2.1 1.6 0.6
v 2.6 1.6 0.6
v 3.1 1.6 0.6
v 3.3 1.6 0.6
v -1 1.6 0.4
v 0.4 1.6 0.4
v 1.1 1.6 0.4
v 1.4 1.6 0.4
v 2.1 1.6 0.4
v 2.6 1.6 0.4
v 3.1 1.6 0.4
v 3.3 1.6 0.4
v 0.4 1.6 0.3
v 1.4 1.6 0.3
v 1.1 1.7 0.6
v 1.4 1.7 0.6
v 1.1 1.7 0.4
v 1.4 1.7 0.4

# faces
f 3/1/1 2/1/1 1/1/1
f 4/1/1 2/1/1 3/1/1
f 9/1/1 6/1/1 5/1/1
f 10/1/1 8/1/1 7/1/1
f 11/1/1 9/1/1 5/1/1
f 11/1/1 10/1/1 9/1/1
f 12/1/1 8/1/1 10/1/1
f 12/1/1 10/1/1 11/1/1
f 15/1/1 14/1/1 13/1/1
f 16/1/1 14/1/1 15/1/1
f 19/1/1 18/1/1 17/1/1
f 20/1/1 18/1/1 19/1/1
f 23/4/1 22/4/1 21/4/1
f 24/4/1 22/4/1 23/4/1
f 27/1/1 26/1/1 25/1/1
f 28/1/1 26/1/1 27/1/1
f 31/1/1 30/1/1 29/1/1
f 32/1/1 30/1/1 31/1/1
f 33/1/1 31/1/1 29/1/1
f 34/1/1 31/1/1 33/1/1
f 35/1/1 30/1/1 32/1/1
f 36/1/1 30/1/1 35/1/1
f 37/1/1 35/1/1 34/1/1
f 38/1/1 35/1/1 37/1/1
f 41/1/1 40/1/1 39/1/1
f 42/1/1 40/1/1 41/1/1
f 47/1/1 44/1/1 43/1/1
f 48/1/1 44/1/1 47/1/1
f 49/1/1 46/1/1 45/1/1
f 50/1/1 46/1/1 49/1/1
f 51/1/1 49/1/1 48/1/1
f 52/1/1 49/1/1 51/1/1
f 57/1/1 54/1/1 53/1/1
f 58/1/1 54/1/1 57/1/1
f 59/1/1 56/1/1 55/1/1
f 60/1/1 56/1/1 59/1/1
f 65/4/1 62/4/1 61/4/1
f 66/4/1 62/4/1 65/4/1
f 67/4/1 64/4/1 63/4/1
f 68/4/1 64/4/1 67/4/1
f 71/2/1 70/2/1 69/2/1
f 72/2/1 70/2/1 71/2/1
f 77/4/1 74/4/1 73/4/1
f 78/4/1 74/4/1 77/4/1
f 79/4/1 76/4/1 75/4/1
f 80/4/1 76/4/1 79/4/1
f 83/4/1 82/4/1 81/4/1
f 84/4/1 82/4/1 83/4/1
f 89/1/1 86/1/1 85/1/1
f 89/1/1 88/1/1 87/1/1
f 89/1/1 87/1/1 86/1/1
f 90/1/1 88/1/1 89/1/1
f 91/1/1 88/1/1 90/1/1
f 92/1/1 88/1/1 91/1/1
f 97/1/1 94/1/1 93/1/1
f 97/1/1 96/1/1 95/1/1
f 97/1/1 95/1/1 94/1/1
f 98/1/1 96/1/1 97/1/1
f 99/1/1 96/1/1 98/1/1
f 100/1/1 96/1/1 99/1/1
f 105/1/1 102/1/1 101/1/1
f 105/1/1 104/1/1 103/1/1
f 105/1/1 103/1/1 102/1/1
f 106/1/1 104/1/1 105/1/1
f 107/1/1 104/1/1 106/1/1
f 108/1/1 104/1/1 107/1/1
f 111/1/1 110/1/1 109/1/1
f 112/1/1 110/1/1 111/1/1
f 115/5/1 114/5/1 113/5/1
f 116/5/1 114/5/1 115/5/1
f 119/6/1 118/6/1 117/6/1
f 120/6/1 118/6/1 119/6/1
f 123/6/1 122/6/1 121/6/1
f 124/6/1 122/6/1 123/6/1
f 127/6/1 126/6/1 125/6/1
f 128/6/1 126/6/1 127/6/1
f 129/1/2 130/1/2 132/1/2
f 132/1/2 130/1/2 133/1/2
f 131/1/2 132/1/2 134/1/2
f 134/1/2 132/1/2 135/1/2
f 136/1/2 137/1/2 138/1/2
f 138/1/2 137/1/2 139/1/2
f 140/1/2 141/1/2 144/1/2
f 144/1/2 141/1/2 145/1/2
f 142/1/2 143/1/2 146/1/2
f 146/1/2 143/1/2 147/1/2
f 148/1/2 149/1/2 150/1/2
f 150/1/2 149/1/2 151/1/2
f 152/1/2 153/1/2 154/1/2
f 154/1/2 153/1/2 155/1/2
f 156/1/2 157/1/2 160/1/2
f 160/1/2 157/1/2 161/1/2
f 158/1/2 159/1/2 162/1/2
f 162/1/2 159/1/2 163/1/2
f 164/1/2 165/1/2 166/1/2
f 166/1/2 165/1/2 167/1/2
f 168/1/2 169/1/2 171/1/2
f 171/1/2 169/1/2 172/1/2
f 170/1/2 171/1/2 174/1/2
f 174/1/2 171/1/2 175/1/2
f 172/1/2 173/1/2 176/1/2
f 176/1/2 173/1/2 177/1/2
f 178/1/2 179/1/2 180/1/2
f 180/1/2 179/1/2 181/1/2
f 182/1/2 183/1/2 184/1/2
f 184/1/2 183/1/2 185/1/2
f 182/1/2 184/1/2 186/1/2
f 186/1/2 184/1/2 187/1/2
f 185/1/2 183/1/2 188/1/2
f 188/1/2 183/1/2 189/1/2
f 190/1/2 191/1/2 192/1/2
f 192/1/2 191/1/2 193/1/2
f 194/1/2 195/1/2 196/1/2
f 196/1/2 195/1/2 197/1/2
f 198/2/2 199/2/2 200/2/2
f 200/2/2 199/2/2 201/2/2
f 202/2/2 203/2/2 204/2/2
f 204/2/2 203/2/2 205/2/2
f 206/4/2 207/4/2 210/4/2
f 210/4/2 207/4/2 211/4/2
f 208/4/2 209/4/2 212/4/2
f 212/4/2 209/4/2 213/4/2
f 211/4/2 212/4/2 214/4/2
f 214/4/2 212/4/2 215/4/2
f 216/1/2 217/1/2 220/1/2
f 218/1/2 219/1/2 220/1/2
f 217/1/2 218/1/2 220/1/2
f 220/1/2 219/1/2 221/1/2
f 221/1/2 219/1/2 222/1/2
f 222/1/2 219/1/2 223/1/2
f 224/1/2 225/1/2 228/1/2
f 226/1/2 227/1/2 228/1/2
f 225/1/2 226/1/2 228/1/2
f 228/1/2 227/1/2 229/1/2
f 229/1/2 227/1/2 230/1/2
f 230/1/2 227/1/2 231/1/2
f 232/1/2 233/1/2 236/1/2
f 236/1/2 233/1/2 237/1/2
f 234/1/2 235/1/2 238/1/2
f 238/1/2 235/1/2 239/1/2
f 240/1/2 241/1/2 244/1/2
f 242/1/2 243/1/2 244/1/2
f 241/1/2 242/1/2 244/1/2
f 244/1/2 243/1/2 245/1/2
f 245/1/2 243/1/2 246/1/2
f 246/1/2 243/1/2 247/1/2
f 248/6/2 249/6/2 250/6/2
f 250/6/2 249/6/2 251/6/2
f 252/1/2 253/1/2 256/1/2
f 256/1/2 253/1/2 257/1/2
f 254/1/2 255/1/2 258/1/2
f 258/1/2 255/1/2 259/1/2
f 260/1/2 261/1/2 263/1/2
f 263/1/2 261/1/2 264/1/2
f 262/1/2 263/1/2 266/1/2
f 266/1/2 263/1/2 267/1/2
f 264/1/2 265/1/2 268/1/2
f 268/1/2 265/1/2 269/1/2
f 267/1/2 268/1/2 270/1/2
f 270/1/2 268/1/2 271/1/2
f 272/5/2 273/5/2 274/5/2
f 274/5/2 273/5/2 275/5/2
f 276/5/2 277/5/2 278/5/2
f 278/5/2 277/5/2 279/5/2
f 280/6/2 281/6/2 282/6/2
f 282/6/2 281/6/2 283/6/2
f 284/6/2 285/6/2 286/6/2
f 286/6/2 285/6/2 287/6/2
f 288/6/2 289/6/2 290/6/2
f 290/6/2 289/6/2 291/6/2
f 294/1/3 293/1/3 292/1/3
f 295/1/3 293/1/3 294/1/3
f 296/1/3 293/1/3 295/1/3
f 297/1/3 293/1/3 296/1/3
f 298/1/3 293/1/3 297/1/3
f 299/1/3 293/1/3 298/1/3
f 300/1/3 293/1/3 299/1/3
f 301/1/3 293/1/3 300/1/3
f 304/1/3 303/1/3 302/1/3
f 306/1/3 305/1/3 304/1/3
f 307/4/3 301/4/3 300/4/3
f 308/1/3 306/1/3 304/1/3
f 308/1/3 307/1/3 306/1/3
f 308/1/3 304/1/3 302/1/3
f 309/1/3 307/1/3 308/1/3
f 310/1/3 307/1/3 309/1/3
f 311/4/3 301/4/3 307/4/3
f 311/1/3 307/1/3 310/1/3
f 312/4/3 301/4/3 311/4/3
f 314/4/3 312/4/3 311/4/3
f 314/4/3 313/4/3 312/4/3
f 315/4/3 313/4/3 314/4/3
f 317/4/3 314/4/3 311/4/3
f 317/3/3 315/3/3 314/3/3
f 318/4/3 316/4/3 315/4/3
f 318/3/3 315/3/3 317/3/3
f 319/4/3 317/4/3 311/4/3
f 319/4/3 318/4/3 317/4/3
f 320/4/3 316/4/3 318/4/3
f 320/4/3 318/4/3 319/4/3
f 321/4/3 316/4/3 320/4/3
f 322/1/3 320/1/3 319/1/3
f 323/1/3 320/1/3 322/1/3
f 324/1/3 322/1/3 319/1/3
f 326/1/3 324/1/3 319/1/3
f 326/1/3 325/1/3 324/1/3
f 327/1/3 325/1/3 326/1/3
f 328/1/3 326/1/3 319/1/3
f 330/1/3 328/1/3 319/1/3
f 330/1/3 329/1/3 328/1/3
f 331/1/3 329/1/3 330/1/3
f 332/1/3 329/1/3 331/1/3
f 333/1/3 329/1/3 332/1/3
f 334/1/3 332/1/3 331/1/3
f 336/1/3 334/1/3 331/1/3
f 336/1/3 335/1/3 334/1/3
f 337/1/3 335/1/3 336/1/3
f 338/1/3 336/1/3 331/1/3
f 339/1/3 336/1/3 338/1/3
f 342/1/3 341/1/3 340/1/3
f 343/1/3 341/1/3 342/1/3
f 346/1/3 342/1/3 340/1/3
f 347/1/3 342/1/3 346/1/3
f 349/1/3 348/1/3 347/1/3
f 350/1/3 348/1/3 349/1/3
f 353/1/3 352/1/3 351/1/3
f 354/1/3 352/1/3 353/1/3
f 355/1/3 345/1/3 344/1/3
f 356/1/3 345/1/3 355/1/3
f 359/1/3 358/1/3 357/1/3
f 360/1/3 358/1/3 359/1/3
f 363/1/3 362/1/3 361/1/3
f 364/1/3 362/1/3 363/1/3
f 368/1/3 367/1/3 366/1/3
f 369/1/3 367/1/3 368/1/3
f 373/1/3 370/1/3 369/1/3
f 374/1/3 370/1/3 373/1/3
f 376/1/3 375/1/3 374/1/3
f 377/1/3 375/1/3 376/1/3
f 378/1/3 372/1/3 371/1/3
f 379/1/3 372/1/3 378/1/3
f 381/1/3 380/1/3 379/1/3
f 382/1/3 380/1/3 381/1/3
f 385/1/3 384/1/3 383/1/3
f 386/1/3 384/1/3 385/1/3
f 387/1/3 384/1/3 386/1/3
f 388/1/3 384/1/3 387/1/3
f 389/4/3 364/4/3 363/4/3
f 389/4/3 365/4/3 364/4/3
f 390/4/3 365/4/3 389/4/3
f 391/2/3 387/2/3 386/2/3
f 392/2/3 387/2/3 391/2/3
f 394/2/3 393/2/3 392/2/3
f 395/2/3 393/2/3 394/2/3
f 396/4/3 365/4/3 390/4/3
f 397/4/3 365/4/3 396/4/3
f 401/4/3 399/4/3 398/4/3
f 402/4/3 399/4/3 401/4/3
f 403/1/3 401/1/3 400/1/3
f 404/1/3 401/1/3 403/1/3
f 405/1/3 401/1/3 404/1/3
f 406/1/3 401/1/3 405/1/3
f 409/1/3 401/1/3 406/1/3
f 410/1/3 401/1/3 409/1/3
f 412/1/3 401/1/3 410/1/3
f 413/1/3 401/1/3 412/1/3
f 414/1/3 408/1/3 407/1/3
f 415/1/3 408/1/3 414/1/3
f 416/1/3 412/1/3 411/1/3
f 417/5/3 413/5/3 412/5/3
f 417/1/3 412/1/3 416/1/3
f 418/6/3 416/6/3 415/6/3
f 419/5/3 413/5/3 417/5/3
f 420/5/3 413/5/3 419/5/3
f 421/6/3 418/6/3 415/6/3
f 421/5/3 419/5/3 418/5/3
f 422/5/3 419/5/3 421/5/3
f 423/6/3 421/6/3 415/6/3
f 425/6/3 423/6/3 415/6/3
f 425/6/3 424/6/3 423/6/3
f 426/6/3 424/6/3 425/6/3
f 428/6/3 425/6/3 415/6/3
f 429/6/3 427/6/3 426/6/3
f 430/6/3 428/6/3 415/6/3
f 430/6/3 429/6/3 428/6/3
f 431/6/3 427/6/3 429/6/3
f 431/6/3 429/6/3 430/6/3
f 432/6/3 430/6/3 415/6/3
f 433/6/3 430/6/3 432/6/3
f 436/1/3 435/1/3 434/1/3
f 437/1/3 435/1/3 436/1/3
f 438/1/4 439/1/4 440/1/4
f 440/1/4 439/1/4 441/1/4
f 442/1/4 443/1/4 444/1/4
f 444/1/4 443/1/4 445/1/4
f 442/1/4 444/1/4 448/1/4
f 448/1/4 444/1/4 449/1/4
f 449/1/4 444/1/4 450/1/4
f 450/1/4 444/1/4 451/1/4
f 452/1/4 453/1/4 454/1/4
f 454/1/4 453/1/4 455/1/4
f 446/1/4 447/1/4 456/1/4
f 456/1/4 447/1/4 457/1/4
f 458/1/4 459/1/4 460/1/4
f 460/1/4 459/1/4 461/1/4
f 462/1/4 463/1/4 464/1/4
f 464/1/4 463/1/4 465/1/4
f 467/1/4 468/1/4 469/1/4
f 469/1/4 468/1/4 470/1/4
f 470/1/4 471/1/4 474/1/4
f 474/1/4 471/1/4 475/1/4
f 475/1/4 476/1/4 477/1/4
f 477/1/4 476/1/4 478/1/4
f 472/1/4 473/1/4 479/1/4
f 479/1/4 473/1/4 480/1/4
f 480/1/4 481/1/4 482/1/4
f 482/1/4 481/1/4 483/1/4
f 484/1/4 485/1/4 486/1/4
f 486/1/4 485/1/4 487/1/4
f 487/1/4 485/1/4 488/1/4
f 488/1/4 485/1/4 489/1/4
f 464/4/4 465/4/4 490/4/4
f 465/4/4 466/4/4 490/4/4
f 490/4/4 466/4/4 491/4/4
f 487/2/4 488/2/4 492/2/4
f 492/2/4 488/2/4 493/2/4
f 493/2/4 494/2/4 495/2/4
f 495/2/4 494/2/4 496/2/4
f 491/4/4 466/4/4 497/4/4
f 497/4/4 466/4/4 498/4/4
f 499/4/4 500/4/4 502/4/4
f 502/4/4 500/4/4 503/4/4
f 501/1/4 502/1/4 504/1/4
f 504/1/4 502/1/4 505/1/4
f 505/1/4 502/1/4 506/1/4
f 506/1/4 502/1/4 507/1/4
f 507/1/4 502/1/4 510/1/4
f 510/1/4 502/1/4 511/1/4
f 511/1/4 502/1/4 513/1/4
f 513/1/4 502/1/4 514/1/4
f 508/1/4 509/1/4 515/1/4
f 515/1/4 509/1/4 516/1/4
f 512/1/4 513/1/4 517/1/4
f 513/5/4 514/5/4 518/5/4
f 517/1/4 513/1/4 518/1/4
f 516/6/4 517/6/4 519/6/4
f 518/5/4 514/5/4 520/5/4
f 520/5/4 514/5/4 521/5/4
f 516/6/4 519/6/4 522/6/4
f 519/5/4 520/5/4 522/5/4
f 522/5/4 520/5/4 523/5/4
f 516/6/4 522/6/4 524/6/4
f 516/6/4 524/6/4 526/6/4
f 524/6/4 525/6/4 526/6/4
f 526/6/4 525/6/4 527/6/4
f 516/6/4 526/6/4 529/6/4
f 527/6/4 528/6/4 530/6/4
f 516/6/4 529/6/4 531/6/4
f 529/6/4 530/6/4 531/6/4
f 530/6/4 528/6/4 532/6/4
f 531/6/4 530/6/4 532/6/4
f 516/6/4 531/6/4 533/6/4
f 533/6/4 531/6/4 534/6/4
f 535/1/4 536/1/4 537/1/4
f 537/1/4 536/1/4 538/1/4
f 538/1/4 536/1/4 539/1/4
f 539/1/4 536/1/4 540/1/4
f 540/1/4 536/1/4 541/1/4
f 541/1/4 536/1/4 542/1/4
f 543/1/4 544/1/4 545/1/4
f 545/1/4 546/1/4 547/1/4
f 541/4/4 542/4/4 548/4/4
f 545/1/4 547/1/4 549/1/4
f 547/1/4 548/1/4 549/1/4
f 543/1/4 545/1/4 549/1/4
f 549/1/4 548/1/4 550/1/4
f 550/1/4 548/1/4 551/1/4
f 548/4/4 542/4/4 552/4/4
f 551/1/4 548/1/4 552/1/4
f 552/4/4 542/4/4 553/4/4
f 553/4/4 554/4/4 555/4/4
f 552/4/4 553/4/4 557/4/4
f 555/4/4 556/4/4 557/4/4
f 553/4/4 555/4/4 557/4/4
f 557/4/4 556/4/4 558/4/4
f 558/4/4 556/4/4 559/4/4
f 557/1/4 558/1/4 560/1/4
f 560/1/4 558/1/4 561/1/4
f 557/1/4 560/1/4 562/1/4
f 557/1/4 562/1/4 564/1/4
f 562/1/4 563/1/4 564/1/4
f 564/1/4 563/1/4 565/1/4
f 557/1/4 564/1/4 566/1/4
f 557/1/4 566/1/4 568/1/4
f 566/1/4 567/1/4 568/1/4
f 568/1/4 567/1/4 569/1/4
f 569/1/4 567/1/4 570/1/4
f 570/1/4 567/1/4 571/1/4
f 569/1/4 570/1/4 572/1/4
f 569/1/4 572/1/4 574/1/4
f 572/1/4 573/1/4 574/1/4
f 574/1/4 573/1/4 575/1/4
f 569/1/4 574/1/4 576/1/4
f 576/1/4 574/1/4 577/1/4
f 580/1/5 579/1/5 578/1/5
f 581/1/5 579/1/5 580/1/5
f 584/1/5 583/1/5 582/1/5
f 585/1/5 583/1/5 584/1/5
f 587/1/5 584/1/5 582/1/5
f 588/1/5 586/1/5 585/1/5
f 589/1/5 586/1/5 588/1/5
f 590/1/5 587/1/5 582/1/5
f 590/1/5 588/1/5 587/1/5
f 591/1/5 588/1/5 590/1/5
f 594/1/5 593/1/5 592/1/5
f 595/1/5 593/1/5 594/1/5
f 598/1/5 597/1/5 596/1/5
f 599/1/5 597/1/5 598/1/5
f 601/1/5 597/1/5 599/1/5
f 602/1/5 601/1/5 600/1/5
f 603/1/5 597/1/5 601/1/5
f 603/1/5 601/1/5 602/1/5
f 606/1/5 605/1/5 604/1/5
f 607/1/5 605/1/5 606/1/5
f 612/1/5 609/1/5 608/1/5
f 613/1/5 609/1/5 612/1/5
f 614/2/5 611/2/5 610/2/5
f 615/2/5 611/2/5 614/2/5
f 618/1/5 617/1/5 616/1/5
f 619/1/5 617/1/5 618/1/5
f 623/1/5 620/1/5 619/1/5
f 624/1/5 620/1/5 623/1/5
f 625/2/5 622/2/5 621/2/5
f 626/2/5 622/2/5 625/2/5
f 629/1/5 628/1/5 627/1/5
f 630/1/5 628/1/5 629/1/5
f 631/1/5 628/1/5 630/1/5
f 634/1/5 632/1/5 631/1/5
f 634/1/5 631/1/5 630/1/5
f 635/1/5 632/1/5 634/1/5
f 636/1/5 632/1/5 635/1/5
f 637/1/5 634/1/5 633/1/5
f 637/1/5 635/1/5 634/1/5
f 638/1/5 635/1/5 637/1/5
f 641/1/5 640/1/5 639/1/5
f 642/1/5 640/1/5 641/1/5
f 643/1/5 640/1/5 642/1/5
f 646/1/5 644/1/5 643/1/5
f 646/1/5 643/1/5 642/1/5
f 647/1/5 644/1/5 646/1/5
f 648/1/5 644/1/5 647/1/5
f 649/1/5 646/1/5 645/1/5
f 649/1/5 647/1/5 646/1/5
f 650/1/5 647/1/5 649/1/5
f 657/1/5 652/1/5 651/1/5
f 658/1/5 652/1/5 657/1/5
f 659/4/5 653/4/5 652/4/5
f 660/4/5 653/4/5 659/4/5
f 661/4/5 655/4/5 654/4/5
f 662/4/5 655/4/5 661/4/5
f 663/4/5 655/4/5 662/4/5
f 664/4/5 655/4/5 663/4/5
f 665/1/5 656/1/5 655/1/5
f 668/1/5 652/1/5 658/1/5
f 669/4/5 659/4/5 652/4/5
f 672/4/5 663/4/5 662/4/5
f 673/4/5 663/4/5 672/4/5
f 674/4/5 655/4/5 664/4/5
f 675/1/5 666/1/5 665/1/5
f 675/1/5 665/1/5 655/1/5
f 676/1/5 666/1/5 675/1/5
f 677/1/5 668/1/5 667/1/5
f 678/4/5 670/4/5 669/4/5
f 678/1/5 668/1/5 677/1/5
f 678/1/5 652/1/5 668/1/5
f 678/4/5 669/4/5 652/4/5
f 679/4/5 670/4/5 678/4/5
f 680/4/5 673/4/5 672/4/5
f 680/4/5 674/4/5 673/4/5
f 680/4/5 672/4/5 671/4/5
f 681/4/5 655/4/5 674/4/5
f 681/4/5 674/4/5 680/4/5
f 681/1/5 675/1/5 655/1/5
f 682/1/5 675/1/5 681/1/5
f 685/1/5 684/1/5 683/1/5
f 686/1/5 684/1/5 685/1/5
f 689/6/5 687/6/5 686/6/5
f 690/6/5 687/6/5 689/6/5
f 691/1/5 689/1/5 688/1/5
f 692/1/5 689/1/5 691/1/5
f 695/1/5 694/1/5 693/1/5
f 696/1/5 694/1/5 695/1/5
f 707/1/5 698/1/5 697/1/5
f 708/1/5 698/1/5 707/1/5
f 709/1/5 700/1/5 699/1/5
f 710/1/5 700/1/5 709/1/5
f 711/1/5 702/1/5 701/1/5
f 712/1/5 702/1/5 711/1/5
f 713/5/5 704/5/5 703/5/5
f 714/5/5 704/5/5 713/5/5
f 715/6/5 706/6/5 705/6/5
f 716/6/5 706/6/5 715/6/5
f 717/1/6 718/1/6 720/1/6
f 720/1/6 718/1/6 721/1/6
f 719/1/6 720/1/6 722/1/6
f 722/1/6 720/1/6 723/1/6
f 723/1/6 724/1/6 725/1/6
f 725/1/6 724/1/6 726/1/6
f 727/1/6 728/1/6 730/1/6
f 730/1/6 728/1/6 731/1/6
f 729/1/6 730/1/6 734/1/6
f 734/1/6 730/1/6 735/1/6
f 732/2/6 733/2/6 737/2/6
f 737/2/6 733/2/6 738/2/6
f 735/1/6 736/1/6 739/1/6
f 739/1/6 736/1/6 740/1/6
f 741/1/6 742/1/6 745/1/6
f 745/1/6 742/1/6 746/1/6
f 743/6/6 744/6/6 747/6/6
f 747/6/6 744/6/6 748/6/6
f 749/1/6 750/1/6 760/1/6
f 760/1/6 750/1/6 761/1/6
f 761/1/6 750/1/6 762/1/6
f 750/4/6 751/4/6 763/4/6
f 762/1/6 750/1/6 763/1/6
f 763/4/6 751/4/6 764/4/6
f 752/1/6 753/1/6 765/1/6
f 765/1/6 753/1/6 766/1/6
f 754/1/6 755/1/6 767/1/6
f 767/1/6 755/1/6 768/1/6
f 756/1/6 757/1/6 769/1/6
f 769/1/6 757/1/6 770/1/6
f 758/1/6 759/1/6 771/1/6
f 771/1/6 759/1/6 772/1/6
f 749/1/6 760/1/6 780/1/6
f 761/1/6 762/1/6 781/1/6
f 781/1/6 762/1/6 782/1/6
f 765/6/6 766/6/6 785/6/6
f 785/6/6 766/6/6 786/6/6
f 767/6/6 768/6/6 787/6/6
f 787/6/6 768/6/6 788/6/6
f 769/6/6 770/6/6 789/6/6
f 789/6/6 770/6/6 790/6/6
f 772/6/6 773/6/6 792/6/6
f 792/6/6 773/6/6 793/6/6
f 774/6/6 775/6/6 794/6/6
f 794/6/6 775/6/6 795/6/6
f 776/6/6 777/6/6 796/6/6
f 796/6/6 777/6/6 797/6/6
f 778/6/6 779/6/6 798/6/6
f 798/6/6 779/6/6 799/6/6
f 749/1/6 780/1/6 800/1/6
f 780/1/6 781/1/6 800/1/6
f 781/1/6 782/1/6 800/1/6
f 782/1/6 783/1/6 800/1/6
f 783/4/6 784/4/6 801/4/6
f 800/1/6 783/1/6 801/1/6
f 801/4/6 784/4/6 802/4/6
f 785/1/6 786/1/6 803/1/6
f 803/1/6 786/1/6 804/1/6
f 787/1/6 788/1/6 805/1/6
f 805/1/6 788/1/6 806/1/6
f 789/1/6 790/1/6 807/1/6
f 807/1/6 790/1/6 808/1/6
f 791/1/6 792/1/6 809/1/6
f 809/1/6 792/1/6 810/1/6
f 811/4/6 812/4/6 825/4/6
f 825/4/6 812/4/6 826/4/6
f 813/1/6 814/1/6 827/1/6
f 827/1/6 814/1/6 828/1/6
f 815/1/6 816/1/6 829/1/6
f 829/1/6 816/1/6 830/1/6
f 817/1/6 818/1/6 831/1/6
f 831/1/6 818/1/6 832/1/6
f 819/1/6 820/1/6 833/1/6
f 833/1/6 820/1/6 834/1/6
f 821/1/6 822/1/6 839/1/6
f 839/1/6 822/1/6 840/1/6
f 823/1/6 824/1/6 841/1/6
f 841/1/6 824/1/6 842/1/6
f 835/5/6 836/5/6 853/5/6
f 853/5/6 836/5/6 854/5/6
f 837/6/6 838/6/6 855/6/6
f 855/6/6 838/6/6 856/6/6
f 843/4/6 844/4/6 857/4/6
f 857/4/6 844/4/6 858/4/6
f 845/1/6 846/1/6 859/1/6
f 859/1/6 846/1/6 860/1/6
f 847/1/6 848/1/6 861/1/6
f 861/1/6 848/1/6 862/1/6
f 849/1/6 850/1/6 863/1/6
f 863/1/6 850/1/6 864/1/6
f 851/1/6 852/1/6 865/1/6
f 865/1/6 852/1/6 866/1/6
f 867/4/6 868/4/6 870/4/6
f 870/4/6 868/4/6 871/4/6
f 871/4/6 868/4/6 872/4/6
f 869/4/6 870/4/6 877/4/6
f 870/4/6 871/4/6 877/4/6
f 877/4/6 871/4/6 878/4/6
f 878/4/6 871/4/6 879/4/6
f 872/1/6 873/1/6 880/1/6
f 873/5/6 874/5/6 881/5/6
f 880/1/6 873/1/6 881/1/6
f 881/5/6 874/5/6 882/5/6
f 875/6/6 876/6/6 883/6/6
f 883/6/6 876/6/6 884/6/6
f 879/4/6 880/4/6 885/4/6
f 878/4/6 879/4/6 885/4/6
f 885/4/6 880/4/6 886/4/6
f 887/4/6 888/4/6 889/4/6
f 889/4/6 888/4/6 890/4/6
