# MagicaVoxel @ Ephtracy

# group
o 

# material
mtllib AK_mag.mtl
usemtl palette

# normals
vn -1 0 0
vn 1 0 0
vn 0 0 1
vn 0 0 -1
vn 0 -1 0
vn 0 1 0

# texcoords
vt 0.978516 0.5
vt 0.986328 0.5

# verts
v 0.6 0.5 0.6
v 0.6 0.5 0.4
v 0.6 1.1 0.6
v 0.6 1.1 0.4
v 0.7 0.3 0.6
v 0.7 0.3 0.4
v 0.7 0.5 0.6
v 0.7 0.5 0.4
v 0.8 0.2 0.6
v 0.8 0.2 0.4
v 0.8 0.3 0.6
v 0.8 0.3 0.4
v 0.9 0.1 0.6
v 0.9 0.1 0.4
v 0.9 0.2 0.6
v 0.9 0.2 0.4
v 1 0 0.6
v 1 0 0.4
v 1 0.1 0.6
v 1 0.1 0.4
v 1.1 0.6 0.6
v 1.1 0.6 0.4
v 1.1 1.1 0.6
v 1.1 1.1 0.4
v 1.2 0.3 0.6
v 1.2 0.3 0.4
v 1.2 0.6 0.6
v 1.2 0.6 0.4
v 1.3 0.2 0.6
v 1.3 0.2 0.4
v 1.3 0.3 0.6
v 1.3 0.3 0.4
v 1.4 0 0.6
v 1.4 0 0.4
v 1.4 0.2 0.6
v 1.4 0.2 0.4
v 0.6 0.5 0.6
v 0.6 1.1 0.6
v 0.7 0.3 0.6
v 0.7 0.5 0.6
v 0.7 1.1 0.6
v 0.8 0.2 0.6
v 0.8 0.3 0.6
v 0.8 0.5 0.6
v 0.8 1.1 0.6
v 0.9 0.1 0.6
v 0.9 0.2 0.6
v 0.9 0.3 0.6
v 0.9 0.5 0.6
v 0.9 1.1 0.6
v 1 0 0.6
v 1 0.1 0.6
v 1 0.2 0.6
v 1 0.3 0.6
v 1 0.5 0.6
v 1 1.1 0.6
v 1.1 0 0.6
v 1.1 0.1 0.6
v 1.1 0.2 0.6
v 1.1 0.3 0.6
v 1.1 0.5 0.6
v 1.1 0.6 0.6
v 1.1 1.1 0.6
v 1.2 0 0.6
v 1.2 0.1 0.6
v 1.2 0.2 0.6
v 1.2 0.3 0.6
v 1.2 0.6 0.6
v 1.3 0.1 0.6
v 1.3 0.2 0.6
v 1.3 0.3 0.6
v 1.4 0 0.6
v 1.4 0.2 0.6
v 0.6 0.5 0.4
v 0.6 1.1 0.4
v 0.7 0.3 0.4
v 0.7 0.5 0.4
v 0.7 1.1 0.4
v 0.8 0.2 0.4
v 0.8 0.3 0.4
v 0.8 0.5 0.4
v 0.8 1.1 0.4
v 0.9 0.1 0.4
v 0.9 0.2 0.4
v 0.9 0.3 0.4
v 0.9 0.5 0.4
v 0.9 1.1 0.4
v 1 0 0.4
v 1 0.1 0.4
v 1 0.2 0.4
v 1 0.3 0.4
v 1 0.5 0.4
v 1 1.1 0.4
v 1.1 0 0.4
v 1.1 0.1 0.4
v 1.1 0.2 0.4
v 1.1 0.3 0.4
v 1.1 0.5 0.4
v 1.1 0.6 0.4
v 1.1 1.1 0.4
v 1.2 0 0.4
v 1.2 0.1 0.4
v 1.2 0.2 0.4
v 1.2 0.3 0.4
v 1.2 0.6 0.4
v 1.3 0.1 0.4
v 1.3 0.2 0.4
v 1.3 0.3 0.4
v 1.4 0 0.4
v 1.4 0.2 0.4
v 1 0 0.6
v 1.1 0 0.6
v 1.2 0 0.6
v 1.4 0 0.6
v 1 0 0.4
v 1.1 0 0.4
v 1.2 0 0.4
v 1.4 0 0.4
v 0.9 0.1 0.6
v 1 0.1 0.6
v 0.9 0.1 0.4
v 1 0.1 0.4
v 0.8 0.2 0.6
v 0.9 0.2 0.6
v 0.8 0.2 0.4
v 0.9 0.2 0.4
v 0.7 0.3 0.6
v 0.8 0.3 0.6
v 0.7 0.3 0.4
v 0.8 0.3 0.4
v 0.6 0.5 0.6
v 0.7 0.5 0.6
v 0.6 0.5 0.4
v 0.7 0.5 0.4
v 1.3 0.2 0.6
v 1.4 0.2 0.6
v 1.3 0.2 0.4
v 1.4 0.2 0.4
v 1.2 0.3 0.6
v 1.3 0.3 0.6
v 1.2 0.3 0.4
v 1.3 0.3 0.4
v 1.1 0.6 0.6
v 1.2 0.6 0.6
v 1.1 0.6 0.4
v 1.2 0.6 0.4
v 0.6 1.1 0.6
v 0.7 1.1 0.6
v 0.8 1.1 0.6
v 0.9 1.1 0.6
v 1 1.1 0.6
v 1.1 1.1 0.6
v 0.6 1.1 0.4
v 0.7 1.1 0.4
v 0.8 1.1 0.4
v 0.9 1.1 0.4
v 1 1.1 0.4
v 1.1 1.1 0.4

# faces
f 3/2/1 2/2/1 1/2/1
f 4/2/1 2/2/1 3/2/1
f 7/2/1 6/2/1 5/2/1
f 8/2/1 6/2/1 7/2/1
f 11/2/1 10/2/1 9/2/1
f 12/2/1 10/2/1 11/2/1
f 15/2/1 14/2/1 13/2/1
f 16/2/1 14/2/1 15/2/1
f 19/2/1 18/2/1 17/2/1
f 20/2/1 18/2/1 19/2/1
f 21/2/2 22/2/2 23/2/2
f 23/2/2 22/2/2 24/2/2
f 25/2/2 26/2/2 27/2/2
f 27/2/2 26/2/2 28/2/2
f 29/2/2 30/2/2 31/2/2
f 31/2/2 30/2/2 32/2/2
f 33/2/2 34/2/2 35/2/2
f 35/2/2 34/2/2 36/2/2
f 40/2/3 38/2/3 37/2/3
f 41/2/3 38/2/3 40/2/3
f 43/2/3 40/2/3 39/2/3
f 44/1/3 41/1/3 40/1/3
f 44/2/3 40/2/3 43/2/3
f 45/1/3 41/1/3 44/1/3
f 47/2/3 43/2/3 42/2/3
f 48/1/3 44/1/3 43/1/3
f 48/2/3 43/2/3 47/2/3
f 49/2/3 45/2/3 44/2/3
f 49/1/3 44/1/3 48/1/3
f 50/2/3 45/2/3 49/2/3
f 52/2/3 47/2/3 46/2/3
f 53/1/3 48/1/3 47/1/3
f 53/2/3 47/2/3 52/2/3
f 54/2/3 49/2/3 48/2/3
f 54/1/3 48/1/3 53/1/3
f 55/1/3 50/1/3 49/1/3
f 55/2/3 49/2/3 54/2/3
f 56/1/3 50/1/3 55/1/3
f 57/2/3 52/2/3 51/2/3
f 58/1/3 53/1/3 52/1/3
f 58/2/3 52/2/3 57/2/3
f 59/2/3 54/2/3 53/2/3
f 59/1/3 53/1/3 58/1/3
f 60/1/3 55/1/3 54/1/3
f 60/2/3 54/2/3 59/2/3
f 61/2/3 56/2/3 55/2/3
f 61/1/3 55/1/3 60/1/3
f 62/2/3 56/2/3 61/2/3
f 63/2/3 56/2/3 62/2/3
f 64/1/3 58/1/3 57/1/3
f 65/2/3 59/2/3 58/2/3
f 65/1/3 58/1/3 64/1/3
f 66/1/3 60/1/3 59/1/3
f 66/2/3 59/2/3 65/2/3
f 67/2/3 61/2/3 60/2/3
f 67/1/3 60/1/3 66/1/3
f 67/2/3 62/2/3 61/2/3
f 68/2/3 62/2/3 67/2/3
f 69/2/3 65/2/3 64/2/3
f 69/1/3 66/1/3 65/1/3
f 70/2/3 67/2/3 66/2/3
f 70/1/3 66/1/3 69/1/3
f 71/2/3 67/2/3 70/2/3
f 72/2/3 69/2/3 64/2/3
f 72/2/3 70/2/3 69/2/3
f 73/2/3 70/2/3 72/2/3
f 74/2/4 75/2/4 77/2/4
f 77/2/4 75/2/4 78/2/4
f 76/2/4 77/2/4 80/2/4
f 77/1/4 78/1/4 81/1/4
f 80/2/4 77/2/4 81/2/4
f 81/1/4 78/1/4 82/1/4
f 79/2/4 80/2/4 84/2/4
f 80/1/4 81/1/4 85/1/4
f 84/2/4 80/2/4 85/2/4
f 81/2/4 82/2/4 86/2/4
f 85/1/4 81/1/4 86/1/4
f 86/2/4 82/2/4 87/2/4
f 83/2/4 84/2/4 89/2/4
f 84/1/4 85/1/4 90/1/4
f 89/2/4 84/2/4 90/2/4
f 85/2/4 86/2/4 91/2/4
f 90/1/4 85/1/4 91/1/4
f 86/1/4 87/1/4 92/1/4
f 91/2/4 86/2/4 92/2/4
f 92/1/4 87/1/4 93/1/4
f 88/2/4 89/2/4 94/2/4
f 89/1/4 90/1/4 95/1/4
f 94/2/4 89/2/4 95/2/4
f 90/2/4 91/2/4 96/2/4
f 95/1/4 90/1/4 96/1/4
f 91/1/4 92/1/4 97/1/4
f 96/2/4 91/2/4 97/2/4
f 92/2/4 93/2/4 98/2/4
f 97/1/4 92/1/4 98/1/4
f 98/2/4 93/2/4 99/2/4
f 99/2/4 93/2/4 100/2/4
f 94/1/4 95/1/4 101/1/4
f 95/2/4 96/2/4 102/2/4
f 101/1/4 95/1/4 102/1/4
f 96/1/4 97/1/4 103/1/4
f 102/2/4 96/2/4 103/2/4
f 97/2/4 98/2/4 104/2/4
f 103/1/4 97/1/4 104/1/4
f 98/2/4 99/2/4 104/2/4
f 104/2/4 99/2/4 105/2/4
f 101/2/4 102/2/4 106/2/4
f 102/1/4 103/1/4 106/1/4
f 103/2/4 104/2/4 107/2/4
f 106/1/4 103/1/4 107/1/4
f 107/2/4 104/2/4 108/2/4
f 101/2/4 106/2/4 109/2/4
f 106/2/4 107/2/4 109/2/4
f 109/2/4 107/2/4 110/2/4
f 115/2/5 112/2/5 111/2/5
f 116/1/5 113/1/5 112/1/5
f 116/2/5 112/2/5 115/2/5
f 117/2/5 114/2/5 113/2/5
f 117/1/5 113/1/5 116/1/5
f 118/2/5 114/2/5 117/2/5
f 121/2/5 120/2/5 119/2/5
f 122/2/5 120/2/5 121/2/5
f 125/2/5 124/2/5 123/2/5
f 126/2/5 124/2/5 125/2/5
f 129/2/5 128/2/5 127/2/5
f 130/2/5 128/2/5 129/2/5
f 133/2/5 132/2/5 131/2/5
f 134/2/5 132/2/5 133/2/5
f 135/2/6 136/2/6 137/2/6
f 137/2/6 136/2/6 138/2/6
f 139/2/6 140/2/6 141/2/6
f 141/2/6 140/2/6 142/2/6
f 143/2/6 144/2/6 145/2/6
f 145/2/6 144/2/6 146/2/6
f 147/2/6 148/2/6 153/2/6
f 148/1/6 149/1/6 154/1/6
f 153/2/6 148/2/6 154/2/6
f 149/2/6 150/2/6 155/2/6
f 154/1/6 149/1/6 155/1/6
f 150/1/6 151/1/6 156/1/6
f 155/2/6 150/2/6 156/2/6
f 151/2/6 152/2/6 157/2/6
f 156/1/6 151/1/6 157/1/6
f 157/2/6 152/2/6 158/2/6
