# MagicaVoxel @ Ephtracy

# group
o 

# material
mtllib Skeleton-9.mtl
usemtl palette

# normals
vn -1 0 0
vn 1 0 0
vn 0 0 1
vn 0 0 -1
vn 0 -1 0
vn 0 1 0

# texcoords
vt 0.705078 0.5
vt 0.958984 0.5
vt 0.966797 0.5
vt 0.978516 0.5

# verts
v -0.4 3 -1.4
v -0.4 3 -2
v -0.4 3.2 -1.9
v -0.4 3.2 -2
v -0.4 3.3 -1.4
v -0.4 3.3 -1.7
v -0.4 3.4 -1.4
v -0.4 3.4 -1.5
v -0.4 3.4 -1.7
v -0.4 3.4 -1.9
v -0.4 3.4 -2
v -0.4 3.5 -1.5
v -0.4 3.5 -1.9
v -0.3 2.8 -1.4
v -0.3 2.8 -1.6
v -0.3 2.9 -1.6
v -0.3 2.9 -1.9
v -0.3 3 -1.4
v -0.3 3 -1.9
v -0.3 3.4 -1.4
v -0.3 3.4 -1.5
v -0.3 3.4 -1.9
v -0.3 3.4 -2
v -0.3 3.5 -1.4
v -0.3 3.5 -1.5
v -0.3 3.5 -1.9
v -0.3 3.5 -2
v -0.2 2.8 -1.6
v -0.2 2.8 -1.9
v -0.2 2.9 -1.6
v -0.2 2.9 -1.9
v -0.2 2.9 -2
v -0.2 3 -1.9
v -0.2 3 -2
v -0.2 3.2 -1.4
v -0.2 3.2 -1.5
v -0.2 3.3 -1.4
v -0.2 3.3 -1.5
v -0.2 3.5 -1.6
v -0.2 3.5 -1.8
v -0.2 3.6 -1.6
v -0.2 3.6 -1.8
v -0.1 2.8 -1.4
v -0.1 2.8 -1.5
v -0.1 2.9 -1.4
v -0.1 2.9 -1.5
v -0.1 3.1 -1.4
v -0.1 3.1 -1.5
v -0.1 3.2 -1.4
v -0.1 3.2 -1.5
v 0.1 3 -1.4
v 0.1 3 -1.5
v 0.1 3.1 -1.4
v 0.1 3.1 -1.5
v 0.2 2.8 -1.4
v 0.2 2.8 -1.5
v 0.2 2.9 -1.4
v 0.2 2.9 -1.5
v 0.3 3.1 -1.4
v 0.3 3.1 -1.5
v 0.3 3.3 -1.4
v 0.3 3.3 -1.5
v -0.3 3.1 -1.4
v -0.3 3.1 -1.5
v -0.3 3.3 -1.4
v -0.3 3.3 -1.5
v -0.2 2.8 -1.4
v -0.2 2.8 -1.5
v -0.2 2.9 -1.4
v -0.2 2.9 -1.5
v -0.1 3 -1.4
v -0.1 3 -1.5
v -0.1 3.1 -1.4
v -0.1 3.1 -1.5
v 0.1 2.8 -1.4
v 0.1 2.8 -1.5
v 0.1 2.9 -1.4
v 0.1 2.9 -1.5
v 0.1 3.1 -1.4
v 0.1 3.1 -1.5
v 0.1 3.2 -1.4
v 0.1 3.2 -1.5
v 0.2 2.8 -1.6
v 0.2 2.8 -1.9
v 0.2 2.9 -1.6
v 0.2 2.9 -1.9
v 0.2 2.9 -2
v 0.2 3 -1.9
v 0.2 3 -2
v 0.2 3.2 -1.4
v 0.2 3.2 -1.5
v 0.2 3.3 -1.4
v 0.2 3.3 -1.5
v 0.2 3.5 -1.6
v 0.2 3.5 -1.8
v 0.2 3.6 -1.6
v 0.2 3.6 -1.8
v 0.3 2.8 -1.4
v 0.3 2.8 -1.6
v 0.3 2.9 -1.6
v 0.3 2.9 -1.9
v 0.3 3 -1.4
v 0.3 3 -1.9
v 0.3 3.4 -1.4
v 0.3 3.4 -1.5
v 0.3 3.4 -1.9
v 0.3 3.4 -2
v 0.3 3.5 -1.4
v 0.3 3.5 -1.5
v 0.3 3.5 -1.9
v 0.3 3.5 -2
v 0.4 3 -1.4
v 0.4 3 -2
v 0.4 3.2 -1.9
v 0.4 3.2 -2
v 0.4 3.3 -1.4
v 0.4 3.3 -1.7
v 0.4 3.4 -1.4
v 0.4 3.4 -1.5
v 0.4 3.4 -1.7
v 0.4 3.4 -1.8
v 0.4 3.4 -1.9
v 0.4 3.4 -2
v 0.4 3.5 -1.5
v 0.4 3.5 -1.7
v 0.4 3.5 -1.8
v 0.4 3.5 -1.9
v -0.4 3 -1.4
v -0.4 3.3 -1.4
v -0.4 3.4 -1.4
v -0.3 2.8 -1.4
v -0.3 3 -1.4
v -0.3 3.1 -1.4
v -0.3 3.3 -1.4
v -0.3 3.4 -1.4
v -0.3 3.5 -1.4
v -0.2 2.8 -1.4
v -0.2 2.9 -1.4
v -0.2 3.2 -1.4
v -0.2 3.3 -1.4
v -0.2 3.4 -1.4
v -0.1 2.8 -1.4
v -0.1 2.9 -1.4
v -0.1 3 -1.4
v -0.1 3.1 -1.4
v -0.1 3.2 -1.4
v -0.1 3.4 -1.4
v -0.1 3.5 -1.4
v 0 3.3 -1.4
v 0 3.5 -1.4
v 0.1 2.8 -1.4
v 0.1 2.9 -1.4
v 0.1 3 -1.4
v 0.1 3.1 -1.4
v 0.1 3.2 -1.4
v 0.1 3.4 -1.4
v 0.1 3.5 -1.4
v 0.2 2.8 -1.4
v 0.2 2.9 -1.4
v 0.2 3.2 -1.4
v 0.2 3.3 -1.4
v 0.2 3.4 -1.4
v 0.3 2.8 -1.4
v 0.3 3 -1.4
v 0.3 3.1 -1.4
v 0.3 3.3 -1.4
v 0.3 3.4 -1.4
v 0.3 3.5 -1.4
v 0.4 3 -1.4
v 0.4 3.3 -1.4
v 0.4 3.4 -1.4
v -0.4 3.4 -1.5
v -0.4 3.5 -1.5
v -0.3 3.1 -1.5
v -0.3 3.3 -1.5
v -0.3 3.4 -1.5
v -0.3 3.5 -1.5
v -0.2 2.8 -1.5
v -0.2 2.9 -1.5
v -0.2 3.2 -1.5
v -0.2 3.3 -1.5
v -0.1 2.8 -1.5
v -0.1 2.9 -1.5
v -0.1 3 -1.5
v -0.1 3.1 -1.5
v -0.1 3.2 -1.5
v 0.1 2.8 -1.5
v 0.1 2.9 -1.5
v 0.1 3 -1.5
v 0.1 3.1 -1.5
v 0.1 3.2 -1.5
v 0.2 2.8 -1.5
v 0.2 2.9 -1.5
v 0.2 3.2 -1.5
v 0.2 3.3 -1.5
v 0.3 3.1 -1.5
v 0.3 3.3 -1.5
v 0.3 3.4 -1.5
v 0.3 3.5 -1.5
v 0.4 3.4 -1.5
v 0.4 3.5 -1.5
v -0.2 3.5 -1.6
v -0.2 3.6 -1.6
v 0.2 3.5 -1.6
v 0.2 3.6 -1.6
v -0.3 2.8 -1.6
v -0.3 2.9 -1.6
v -0.2 2.8 -1.6
v -0.2 2.9 -1.6
v 0.2 2.8 -1.6
v 0.2 2.9 -1.6
v 0.3 2.8 -1.6
v 0.3 2.9 -1.6
v -0.2 3.5 -1.8
v -0.2 3.6 -1.8
v -0.1 3.5 -1.8
v -0.1 3.6 -1.8
v 0.1 3.5 -1.8
v 0.1 3.6 -1.8
v 0.2 3.5 -1.8
v 0.2 3.6 -1.8
v -0.4 3.4 -1.9
v -0.4 3.5 -1.9
v -0.3 2.9 -1.9
v -0.3 3 -1.9
v -0.3 3.4 -1.9
v -0.3 3.5 -1.9
v -0.2 2.8 -1.9
v -0.2 2.9 -1.9
v -0.2 3 -1.9
v 0.2 2.8 -1.9
v 0.2 2.9 -1.9
v 0.2 3 -1.9
v 0.3 2.9 -1.9
v 0.3 3 -1.9
v 0.3 3.4 -1.9
v 0.3 3.5 -1.9
v 0.4 3.4 -1.9
v 0.4 3.5 -1.9
v -0.4 3 -2
v -0.4 3.2 -2
v -0.4 3.4 -2
v -0.3 3.4 -2
v -0.3 3.5 -2
v -0.2 2.9 -2
v -0.2 3 -2
v -0.2 3.2 -2
v -0.2 3.5 -2
v 0.1 3.4 -2
v 0.1 3.5 -2
v 0.2 2.9 -2
v 0.2 3 -2
v 0.2 3.2 -2
v 0.2 3.4 -2
v 0.3 3.4 -2
v 0.3 3.5 -2
v 0.4 3 -2
v 0.4 3.2 -2
v 0.4 3.4 -2
v -0.3 2.8 -1.4
v -0.2 2.8 -1.4
v -0.1 2.8 -1.4
v 0.1 2.8 -1.4
v 0.2 2.8 -1.4
v 0.3 2.8 -1.4
v -0.2 2.8 -1.5
v -0.1 2.8 -1.5
v 0.1 2.8 -1.5
v 0.2 2.8 -1.5
v -0.3 2.8 -1.6
v -0.2 2.8 -1.6
v 0.2 2.8 -1.6
v 0.3 2.8 -1.6
v -0.2 2.8 -1.9
v 0.2 2.8 -1.9
v -0.2 2.9 -1.4
v -0.1 2.9 -1.4
v 0.1 2.9 -1.4
v 0.2 2.9 -1.4
v -0.2 2.9 -1.5
v -0.1 2.9 -1.5
v 0.1 2.9 -1.5
v 0.2 2.9 -1.5
v -0.3 2.9 -1.6
v -0.2 2.9 -1.6
v 0.2 2.9 -1.6
v 0.3 2.9 -1.6
v -0.3 2.9 -1.9
v -0.2 2.9 -1.9
v 0.2 2.9 -1.9
v 0.3 2.9 -1.9
v -0.2 2.9 -2
v 0.2 2.9 -2
v -0.4 3 -1.4
v -0.3 3 -1.4
v 0.3 3 -1.4
v 0.4 3 -1.4
v -0.3 3 -1.9
v -0.2 3 -1.9
v 0.2 3 -1.9
v 0.3 3 -1.9
v -0.4 3 -2
v -0.2 3 -2
v 0.2 3 -2
v 0.4 3 -2
v -0.1 3.1 -1.4
v 0.1 3.1 -1.4
v -0.1 3.1 -1.5
v 0.1 3.1 -1.5
v -0.2 3.2 -1.4
v -0.1 3.2 -1.4
v 0.1 3.2 -1.4
v 0.2 3.2 -1.4
v -0.2 3.2 -1.5
v -0.1 3.2 -1.5
v 0.1 3.2 -1.5
v 0.2 3.2 -1.5
v -0.3 3.3 -1.4
v -0.2 3.3 -1.4
v 0.2 3.3 -1.4
v 0.3 3.3 -1.4
v -0.3 3.3 -1.5
v -0.2 3.3 -1.5
v 0.2 3.3 -1.5
v 0.3 3.3 -1.5
v -0.1 3 -1.4
v 0.1 3 -1.4
v -0.1 3 -1.5
v 0.1 3 -1.5
v -0.3 3.1 -1.4
v -0.1 3.1 -1.4
v 0.1 3.1 -1.4
v 0.3 3.1 -1.4
v -0.3 3.1 -1.5
v -0.1 3.1 -1.5
v 0.1 3.1 -1.5
v 0.3 3.1 -1.5
v -0.4 3.4 -1.4
v -0.3 3.4 -1.4
v 0.3 3.4 -1.4
v 0.4 3.4 -1.4
v -0.4 3.4 -1.5
v -0.3 3.4 -1.5
v 0.3 3.4 -1.5
v 0.4 3.4 -1.5
v -0.4 3.4 -1.9
v -0.3 3.4 -1.9
v 0.3 3.4 -1.9
v 0.4 3.4 -1.9
v -0.4 3.4 -2
v -0.3 3.4 -2
v 0.3 3.4 -2
v 0.4 3.4 -2
v -0.3 3.5 -1.4
v -0.1 3.5 -1.4
v 0 3.5 -1.4
v 0.1 3.5 -1.4
v 0.3 3.5 -1.4
v -0.4 3.5 -1.5
v -0.3 3.5 -1.5
v -0.2 3.5 -1.5
v -0.1 3.5 -1.5
v 0 3.5 -1.5
v 0.1 3.5 -1.5
v 0.2 3.5 -1.5
v 0.3 3.5 -1.5
v 0.4 3.5 -1.5
v -0.2 3.5 -1.6
v 0.2 3.5 -1.6
v 0.3 3.5 -1.7
v 0.4 3.5 -1.7
v -0.2 3.5 -1.8
v -0.1 3.5 -1.8
v 0.1 3.5 -1.8
v 0.2 3.5 -1.8
v 0.3 3.5 -1.8
v 0.4 3.5 -1.8
v -0.4 3.5 -1.9
v -0.3 3.5 -1.9
v -0.2 3.5 -1.9
v 0.1 3.5 -1.9
v 0.3 3.5 -1.9
v 0.4 3.5 -1.9
v -0.3 3.5 -2
v -0.2 3.5 -2
v 0.1 3.5 -2
v 0.3 3.5 -2
v -0.2 3.6 -1.6
v 0.2 3.6 -1.6
v -0.1 3.6 -1.7
v 0.1 3.6 -1.7
v -0.2 3.6 -1.8
v -0.1 3.6 -1.8
v 0.1 3.6 -1.8
v 0.2 3.6 -1.8

# faces
f 3/2/1 2/2/1 1/2/1
f 4/2/1 2/2/1 3/2/1
f 5/2/1 3/2/1 1/2/1
f 6/2/1 3/2/1 5/2/1
f 7/3/1 6/3/1 5/3/1
f 8/3/1 6/3/1 7/3/1
f 9/2/1 3/2/1 6/2/1
f 9/3/1 6/3/1 8/3/1
f 10/3/1 4/3/1 3/3/1
f 10/2/1 3/2/1 9/2/1
f 11/3/1 4/3/1 10/3/1
f 12/3/1 9/3/1 8/3/1
f 12/3/1 10/3/1 9/3/1
f 13/3/1 10/3/1 12/3/1
f 16/2/1 15/2/1 14/2/1
f 18/2/1 16/2/1 14/2/1
f 18/2/1 17/2/1 16/2/1
f 19/2/1 17/2/1 18/2/1
f 24/3/1 21/3/1 20/3/1
f 25/3/1 21/3/1 24/3/1
f 26/3/1 23/3/1 22/3/1
f 27/3/1 23/3/1 26/3/1
f 30/2/1 29/2/1 28/2/1
f 31/2/1 29/2/1 30/2/1
f 33/2/1 32/2/1 31/2/1
f 34/2/1 32/2/1 33/2/1
f 37/2/1 36/2/1 35/2/1
f 38/2/1 36/2/1 37/2/1
f 41/4/1 40/4/1 39/4/1
f 42/4/1 40/4/1 41/4/1
f 45/2/1 44/2/1 43/2/1
f 46/2/1 44/2/1 45/2/1
f 49/2/1 48/2/1 47/2/1
f 50/2/1 48/2/1 49/2/1
f 53/2/1 52/2/1 51/2/1
f 54/2/1 52/2/1 53/2/1
f 57/2/1 56/2/1 55/2/1
f 58/2/1 56/2/1 57/2/1
f 61/2/1 60/2/1 59/2/1
f 62/2/1 60/2/1 61/2/1
f 63/2/2 64/2/2 65/2/2
f 65/2/2 64/2/2 66/2/2
f 67/2/2 68/2/2 69/2/2
f 69/2/2 68/2/2 70/2/2
f 71/2/2 72/2/2 73/2/2
f 73/2/2 72/2/2 74/2/2
f 75/2/2 76/2/2 77/2/2
f 77/2/2 76/2/2 78/2/2
f 79/2/2 80/2/2 81/2/2
f 81/2/2 80/2/2 82/2/2
f 83/2/2 84/2/2 85/2/2
f 85/2/2 84/2/2 86/2/2
f 86/2/2 87/2/2 88/2/2
f 88/2/2 87/2/2 89/2/2
f 90/2/2 91/2/2 92/2/2
f 92/2/2 91/2/2 93/2/2
f 94/4/2 95/4/2 96/4/2
f 96/4/2 95/4/2 97/4/2
f 98/2/2 99/2/2 100/2/2
f 98/2/2 100/2/2 102/2/2
f 100/2/2 101/2/2 102/2/2
f 102/2/2 101/2/2 103/2/2
f 104/3/2 105/3/2 108/3/2
f 108/3/2 105/3/2 109/3/2
f 106/4/2 107/4/2 110/4/2
f 110/4/2 107/4/2 111/4/2
f 112/2/2 113/2/2 114/2/2
f 114/2/2 113/2/2 115/2/2
f 112/2/2 114/2/2 116/2/2
f 116/2/2 114/2/2 117/2/2
f 116/3/2 117/3/2 118/3/2
f 118/3/2 117/3/2 119/3/2
f 117/2/2 114/2/2 120/2/2
f 119/3/2 117/3/2 120/3/2
f 120/2/2 114/2/2 121/2/2
f 114/3/2 115/3/2 122/3/2
f 121/2/2 114/2/2 122/2/2
f 122/3/2 115/3/2 123/3/2
f 119/3/2 120/3/2 124/3/2
f 120/4/2 121/4/2 125/4/2
f 124/3/2 120/3/2 125/3/2
f 121/3/2 122/3/2 126/3/2
f 125/4/2 121/4/2 126/4/2
f 126/3/2 122/3/2 127/3/2
f 132/2/3 129/2/3 128/2/3
f 133/2/3 129/2/3 132/2/3
f 134/3/3 130/3/3 129/3/3
f 134/2/3 129/2/3 133/2/3
f 135/3/3 130/3/3 134/3/3
f 137/2/3 133/2/3 132/2/3
f 137/2/3 132/2/3 131/2/3
f 138/2/3 133/2/3 137/2/3
f 140/3/3 136/3/3 135/3/3
f 140/3/3 135/3/3 134/3/3
f 141/3/3 136/3/3 140/3/3
f 143/2/3 133/2/3 138/2/3
f 144/2/3 133/2/3 143/2/3
f 145/2/3 133/2/3 144/2/3
f 146/2/3 140/2/3 139/2/3
f 147/4/3 141/4/3 140/4/3
f 147/3/3 136/3/3 141/3/3
f 148/3/3 136/3/3 147/3/3
f 149/2/3 146/2/3 145/2/3
f 149/2/3 140/2/3 146/2/3
f 149/4/3 148/4/3 147/4/3
f 149/4/3 147/4/3 140/4/3
f 150/4/3 148/4/3 149/4/3
f 151/2/3 144/2/3 143/2/3
f 151/2/3 143/2/3 142/2/3
f 152/2/3 144/2/3 151/2/3
f 153/2/3 144/2/3 152/2/3
f 154/2/3 150/2/3 149/2/3
f 154/2/3 149/2/3 145/2/3
f 155/2/3 150/2/3 154/2/3
f 156/2/3 150/2/3 155/2/3
f 157/2/3 150/2/3 156/2/3
f 159/2/3 153/2/3 152/2/3
f 159/2/3 154/2/3 153/2/3
f 160/2/3 156/2/3 155/2/3
f 161/2/3 156/2/3 160/2/3
f 162/3/3 157/3/3 156/3/3
f 162/2/3 156/2/3 161/2/3
f 163/2/3 159/2/3 158/2/3
f 164/2/3 154/2/3 159/2/3
f 164/2/3 159/2/3 163/2/3
f 165/2/3 154/2/3 164/2/3
f 166/3/3 162/3/3 161/3/3
f 167/3/3 157/3/3 162/3/3
f 167/3/3 162/3/3 166/3/3
f 168/3/3 157/3/3 167/3/3
f 169/2/3 166/2/3 165/2/3
f 169/2/3 165/2/3 164/2/3
f 170/3/3 167/3/3 166/3/3
f 170/2/3 166/2/3 169/2/3
f 171/3/3 167/3/3 170/3/3
f 176/3/3 173/3/3 172/3/3
f 177/3/3 173/3/3 176/3/3
f 180/1/3 175/1/3 174/1/3
f 181/1/3 175/1/3 180/1/3
f 182/2/3 179/2/3 178/2/3
f 183/2/3 179/2/3 182/2/3
f 185/1/3 180/1/3 174/1/3
f 186/1/3 180/1/3 185/1/3
f 189/2/3 185/2/3 184/2/3
f 190/2/3 185/2/3 189/2/3
f 192/2/3 188/2/3 187/2/3
f 193/2/3 188/2/3 192/2/3
f 194/1/3 191/1/3 190/1/3
f 196/1/3 194/1/3 190/1/3
f 196/1/3 195/1/3 194/1/3
f 197/1/3 195/1/3 196/1/3
f 200/3/3 199/3/3 198/3/3
f 201/3/3 199/3/3 200/3/3
f 204/4/3 203/4/3 202/4/3
f 205/4/3 203/4/3 204/4/3
f 206/2/4 207/2/4 208/2/4
f 208/2/4 207/2/4 209/2/4
f 210/2/4 211/2/4 212/2/4
f 212/2/4 211/2/4 213/2/4
f 214/4/4 215/4/4 216/4/4
f 216/4/4 215/4/4 217/4/4
f 216/2/4 217/2/4 218/2/4
f 218/2/4 217/2/4 219/2/4
f 218/4/4 219/4/4 220/4/4
f 220/4/4 219/4/4 221/4/4
f 222/3/4 223/3/4 226/3/4
f 226/3/4 223/3/4 227/3/4
f 224/2/4 225/2/4 229/2/4
f 229/2/4 225/2/4 230/2/4
f 228/2/4 229/2/4 231/2/4
f 231/2/4 229/2/4 232/2/4
f 232/2/4 233/2/4 234/2/4
f 234/2/4 233/2/4 235/2/4
f 236/3/4 237/3/4 238/3/4
f 238/3/4 237/3/4 239/3/4
f 241/3/4 242/3/4 243/3/4
f 240/2/4 241/2/4 246/2/4
f 243/3/4 244/3/4 247/3/4
f 241/3/4 243/3/4 247/3/4
f 246/2/4 241/2/4 247/2/4
f 247/3/4 244/3/4 248/3/4
f 245/2/4 246/2/4 249/2/4
f 246/2/4 247/2/4 249/2/4
f 247/2/4 248/2/4 249/2/4
f 249/2/4 248/2/4 250/2/4
f 245/2/4 249/2/4 251/2/4
f 251/2/4 249/2/4 252/2/4
f 252/2/4 249/2/4 253/2/4
f 249/4/4 250/4/4 254/4/4
f 253/2/4 249/2/4 254/2/4
f 254/4/4 250/4/4 255/4/4
f 253/3/4 254/3/4 255/3/4
f 255/4/4 250/4/4 256/4/4
f 252/2/4 253/2/4 257/2/4
f 253/3/4 255/3/4 258/3/4
f 257/2/4 253/2/4 258/2/4
f 258/3/4 255/3/4 259/3/4
f 266/2/5 261/2/5 260/2/5
f 267/2/5 263/2/5 262/2/5
f 268/2/5 263/2/5 267/2/5
f 269/2/5 265/2/5 264/2/5
f 270/2/5 268/2/5 267/2/5
f 270/2/5 269/2/5 268/2/5
f 270/2/5 266/2/5 260/2/5
f 270/2/5 267/2/5 266/2/5
f 271/2/5 269/2/5 270/2/5
f 272/2/5 265/2/5 269/2/5
f 272/2/5 269/2/5 271/2/5
f 273/2/5 265/2/5 272/2/5
f 274/2/5 272/2/5 271/2/5
f 275/2/5 272/2/5 274/2/5
f 280/2/5 277/2/5 276/2/5
f 281/2/5 277/2/5 280/2/5
f 282/2/5 279/2/5 278/2/5
f 283/2/5 279/2/5 282/2/5
f 288/2/5 285/2/5 284/2/5
f 289/2/5 285/2/5 288/2/5
f 290/2/5 287/2/5 286/2/5
f 291/2/5 287/2/5 290/2/5
f 292/2/5 290/2/5 289/2/5
f 293/2/5 290/2/5 292/2/5
f 298/2/5 295/2/5 294/2/5
f 301/2/5 297/2/5 296/2/5
f 302/2/5 299/2/5 298/2/5
f 302/2/5 298/2/5 294/2/5
f 303/2/5 299/2/5 302/2/5
f 304/2/5 301/2/5 300/2/5
f 305/2/5 297/2/5 301/2/5
f 305/2/5 301/2/5 304/2/5
f 308/2/5 307/2/5 306/2/5
f 309/2/5 307/2/5 308/2/5
f 314/2/5 311/2/5 310/2/5
f 315/2/5 311/2/5 314/2/5
f 316/2/5 313/2/5 312/2/5
f 317/2/5 313/2/5 316/2/5
f 322/3/5 319/3/5 318/3/5
f 323/3/5 319/3/5 322/3/5
f 324/3/5 321/3/5 320/3/5
f 325/3/5 321/3/5 324/3/5
f 326/2/6 327/2/6 328/2/6
f 328/2/6 327/2/6 329/2/6
f 330/2/6 331/2/6 334/2/6
f 334/2/6 331/2/6 335/2/6
f 332/2/6 333/2/6 336/2/6
f 336/2/6 333/2/6 337/2/6
f 338/3/6 339/3/6 342/3/6
f 342/3/6 339/3/6 343/3/6
f 340/3/6 341/3/6 344/3/6
f 344/3/6 341/3/6 345/3/6
f 346/3/6 347/3/6 350/3/6
f 350/3/6 347/3/6 351/3/6
f 348/3/6 349/3/6 352/3/6
f 352/3/6 349/3/6 353/3/6
f 354/3/6 355/3/6 360/3/6
f 360/3/6 355/3/6 361/3/6
f 355/4/6 356/4/6 362/4/6
f 361/3/6 355/3/6 362/3/6
f 356/2/6 357/2/6 363/2/6
f 362/4/6 356/4/6 363/4/6
f 357/3/6 358/3/6 364/3/6
f 363/2/6 357/2/6 364/2/6
f 364/3/6 358/3/6 365/3/6
f 365/3/6 358/3/6 366/3/6
f 362/4/6 363/4/6 368/4/6
f 360/3/6 361/3/6 368/3/6
f 361/4/6 362/4/6 368/4/6
f 364/4/6 365/4/6 368/4/6
f 363/4/6 364/4/6 368/4/6
f 359/3/6 360/3/6 368/3/6
f 366/3/6 367/3/6 369/3/6
f 368/4/6 365/4/6 369/4/6
f 365/3/6 366/3/6 369/3/6
f 369/3/6 367/3/6 370/3/6
f 370/3/6 367/3/6 371/3/6
f 359/3/6 368/3/6 372/3/6
f 369/3/6 370/3/6 375/3/6
f 370/4/6 371/4/6 376/4/6
f 375/3/6 370/3/6 376/3/6
f 376/4/6 371/4/6 377/4/6
f 373/3/6 374/3/6 378/3/6
f 374/3/6 375/3/6 378/3/6
f 376/3/6 377/3/6 378/3/6
f 375/3/6 376/3/6 378/3/6
f 359/3/6 372/3/6 378/3/6
f 372/3/6 373/3/6 378/3/6
f 378/3/6 377/3/6 379/3/6
f 379/3/6 377/3/6 380/3/6
f 380/3/6 377/3/6 381/3/6
f 381/3/6 377/3/6 382/3/6
f 382/3/6 377/3/6 383/3/6
f 379/3/6 380/3/6 384/3/6
f 380/2/6 381/2/6 385/2/6
f 384/3/6 380/3/6 385/3/6
f 381/4/6 382/4/6 386/4/6
f 385/2/6 381/2/6 386/2/6
f 386/4/6 382/4/6 387/4/6
f 388/4/6 389/4/6 390/4/6
f 390/4/6 389/4/6 391/4/6
f 388/4/6 390/4/6 392/4/6
f 390/2/6 391/2/6 393/2/6
f 392/4/6 390/4/6 393/4/6
f 391/4/6 389/4/6 394/4/6
f 393/2/6 391/2/6 394/2/6
f 394/4/6 389/4/6 395/4/6
